<svg width="32" height="32" viewBox="0 0 32 32" fill="none" xmlns="http://www.w3.org/2000/svg">
<circle cx="16" cy="16" r="16" fill="#1da1f2"/>
<path d="M25 11.5c-.6.3-1.2.5-1.8.6.7-.4 1.2-1 1.5-1.7-.7.4-1.4.7-2.2.9-.7-.7-1.7-1.1-2.7-1.1-2.1 0-3.7 2-3.2 4.1-2.7-.1-5.1-1.4-6.7-3.4-.3.5-.5 1-.5 1.6 0 1.1.6 2.1 1.5 2.7-.6 0-1.1-.2-1.6-.4v.1c0 1.5 1.1 2.7 2.5 3-.3.1-.7.2-1 .2-.2 0-.5 0-.7-.1.5 1.3 1.7 2.2 3.2 2.2-1.2.9-2.7 1.4-4.2 1.4-.3 0-.6 0-.8-.1 1.5 1 3.3 1.6 5.2 1.6 6.2 0 9.6-5.1 9.6-9.6v-.4c.7-.5 1.2-1.1 1.6-1.7z" fill="#fff"/>
</svg>
